<?xml version="1.0" encoding="utf-8"?>
<!-- Generator: Adobe Illustrator 15.0.2, SVG Export Plug-In . SVG Version: 6.00 Build 0)  -->
<!DOCTYPE svg PUBLIC "-//W3C//DTD SVG 1.1//EN" "http://www.w3.org/Graphics/SVG/1.1/DTD/svg11.dtd">
<svg version="1.1" id="Layer_1" xmlns="http://www.w3.org/2000/svg" xmlns:xlink="http://www.w3.org/1999/xlink" x="0px" y="0px"
	 width="577.5px" height="431.86px" viewBox="-13.443 0 577.5 431.86" enable-background="new -13.443 0 577.5 431.86"
	 xml:space="preserve">
<g>
	<rect x="-11.443" y="17.401" fill="none" width="77" height="22.5"/>
	<text transform="matrix(1 0 0 1 -11.4429 30.292)" fill="#FFFFFF" font-family="'Merriweather-BoldItalic'" font-size="16">humanity</text>
</g>
<g>
	<rect x="176.854" y="6.151" fill="none" width="61" height="22.5"/>
	<text transform="matrix(1 0 0 1 176.8545 19.042)" fill="#FFFFFF" font-family="'Merriweather-BoldItalic'" font-size="16">control</text>
</g>
<g>
	<rect x="130.949" y="255.635" fill="none" width="76.404" height="22.5"/>
	<text transform="matrix(1 0 0 1 130.9492 268.5259)" fill="#FFFFFF" font-family="'Merriweather-BoldItalic'" font-size="16">emotion</text>
</g>
<g>
	<rect x="372.451" y="255.635" fill="none" width="69.904" height="22.5"/>
	<text transform="matrix(1 0 0 1 372.4507 268.5259)" fill="#FFFFFF" font-family="'Merriweather-BoldItalic'" font-size="16">learning</text>
</g>
<g>
	<rect x="243.062" y="408.942" fill="none" width="85.416" height="22.5"/>
	<text transform="matrix(1 0 0 1 243.062 421.8325)" fill="#FFFFFF" font-family="'Merriweather-BoldItalic'" font-size="16">technology</text>
</g>
<g>
	<rect x="440.422" y="137.747" fill="none" width="61" height="22.5"/>
	<text transform="matrix(1 0 0 1 440.4224 150.6382)" fill="#FFFFFF" font-family="'Merriweather-BoldItalic'" font-size="16">thought</text>
</g>
<g>
	<rect x="506.074" y="17.402" fill="none" width="62.666" height="22.5"/>
	<text transform="matrix(1 0 0 1 506.0737 30.2925)" fill="#FFFFFF" font-family="'Merriweather-BoldItalic'" font-size="16">ecology</text>
</g>
<g>
	<rect x="325.557" y="6.152" fill="none" width="70" height="22.5"/>
	<text transform="matrix(1 0 0 1 325.5571 19.0425)" fill="#FFFFFF" font-family="'Merriweather-BoldItalic'" font-size="16">behavior</text>
</g>
<rect x="66.557" y="137.747" fill="none" width="61" height="22.5"/>
<text transform="matrix(1 0 0 1 66.5571 150.6372)" fill="#FFFFFF" font-family="'Merriweather-BoldItalic'" font-size="16">animal</text>
<g>
	<g>
		
			<polygon fill="none" stroke="#FFFFFF" stroke-width="4" stroke-linecap="round" stroke-linejoin="round" stroke-miterlimit="10" points="
			498.557,27.864 282.557,401.984 66.557,27.864 		"/>
		
			<polygon fill="none" stroke="#FFFFFF" stroke-width="4" stroke-linecap="round" stroke-linejoin="round" stroke-miterlimit="10" points="
			360.557,266.885 360.557,27.864 204.557,266.885 204.557,27.864 		"/>
		
			<polyline fill="none" stroke="#FFFFFF" stroke-width="4" stroke-linecap="round" stroke-linejoin="round" stroke-miterlimit="10" points="
			360.557,27.864 282.557,401.984 282.549,147.387 204.557,27.864 429.557,147.375 282.575,147.347 135.542,147.347 204.557,27.864 
			135.542,147.375 498.557,27.864 204.557,266.885 360.557,266.885 66.557,27.864 429.573,147.375 429.573,147.347 360.557,27.864 
			135.542,147.347 66.557,27.864 282.549,147.387 498.557,27.864 		"/>
		
			<line fill="none" stroke="#FFFFFF" stroke-width="4" stroke-linecap="round" stroke-linejoin="round" stroke-miterlimit="10" x1="360.557" y1="266.885" x2="135.542" y2="147.347"/>
		
			<line fill="none" stroke="#FFFFFF" stroke-width="4" stroke-linecap="round" stroke-linejoin="round" stroke-miterlimit="10" x1="204.557" y1="266.885" x2="429.573" y2="147.347"/>
	</g>
	
		<line fill="none" stroke="#FFFFFF" stroke-width="4" stroke-linecap="round" stroke-linejoin="round" stroke-miterlimit="10" x1="282.557" y1="401.984" x2="204.557" y2="27.864"/>
</g>
</svg>
