<?xml version="1.0" encoding="utf-8"?>
<!-- Generator: Adobe Illustrator 15.0.2, SVG Export Plug-In . SVG Version: 6.00 Build 0)  -->
<!DOCTYPE svg PUBLIC "-//W3C//DTD SVG 1.1//EN" "http://www.w3.org/Graphics/SVG/1.1/DTD/svg11.dtd">
<svg version="1.1" id="Layer_1" xmlns="http://www.w3.org/2000/svg" xmlns:xlink="http://www.w3.org/1999/xlink" x="0px" y="0px"
	 width="108.877px" height="108.877px" viewBox="0 0 108.877 108.877" enable-background="new 0 0 108.877 108.877"
	 xml:space="preserve">
<g id="Layer_1_2_">
	<g>
		<g id="Layer_1_1_">
			<g>
				<circle fill="#FFFFFF" cx="54.438" cy="9.007" r="9.008"/>
				<path fill="#FFFFFF" d="M39.525,10.589c2.485,4.309,1.01,9.815-3.299,12.305c-4.31,2.487-9.815,1.012-12.305-3.297
					c-2.486-4.31-1.011-9.817,3.298-12.305C31.527,4.805,37.037,6.281,39.525,10.589z"/>
				<path fill="#FFFFFF" d="M19.6,23.921c4.307,2.484,5.784,7.996,3.295,12.304c-2.488,4.31-7.996,5.785-12.305,3.298
					c-4.309-2.488-5.785-7.996-3.296-12.306C9.781,22.91,15.29,21.434,19.6,23.921z"/>
				<path fill="#FFFFFF" d="M9.008,45.429c4.975,0,9.006,4.033,9.006,9.007c0.002,4.973-4.033,9.006-9.006,9.006
					C4.033,63.444,0,59.411,0,54.436C0.001,49.462,4.034,45.429,9.008,45.429z"/>
				<path fill="#FFFFFF" d="M10.591,69.351c4.308-2.488,9.815-1.012,12.306,3.297c2.487,4.309,1.012,9.816-3.297,12.305
					s-9.815,1.016-12.305-3.297C4.807,77.349,6.281,71.839,10.591,69.351z"/>
				<path fill="#FFFFFF" d="M23.922,89.276c2.488-4.309,7.996-5.785,12.305-3.297c4.31,2.486,5.785,7.996,3.299,12.305
					c-2.487,4.311-7.998,5.783-12.305,3.297C22.911,99.093,21.436,93.585,23.922,89.276z"/>
				<path fill="#FFFFFF" d="M45.43,99.868c0-4.977,4.034-9.008,9.008-9.008c4.976-0.002,9.01,4.031,9.01,9.008
					s-4.034,9.01-9.01,9.01C49.464,108.876,45.43,104.843,45.43,99.868z"/>
				<path fill="#FFFFFF" d="M69.354,98.284c-2.488-4.309-1.012-9.814,3.297-12.305c4.308-2.488,9.815-1.012,12.305,3.297
					c2.486,4.312,1.01,9.816-3.297,12.305C77.35,104.067,71.84,102.593,69.354,98.284z"/>
				<path fill="#FFFFFF" d="M89.279,84.952c-4.31-2.482-5.785-7.996-3.299-12.305s7.996-5.783,12.305-3.297
					c4.309,2.488,5.785,7.998,3.296,12.305C99.095,85.964,93.586,87.44,89.279,84.952z"/>
				<path fill="#FFFFFF" d="M99.868,63.444c-4.974,0-9.009-4.033-9.009-9.007c0-4.975,4.035-9.007,9.009-9.007
					c4.975,0,9.009,4.033,9.009,9.007C108.876,59.413,104.843,63.444,99.868,63.444z"/>
				<path fill="#FFFFFF" d="M98.286,39.523c-4.31,2.487-9.817,1.012-12.306-3.298c-2.487-4.307-1.011-9.817,3.299-12.305
					c4.307-2.486,9.814-1.013,12.303,3.297S102.594,37.037,98.286,39.523z"/>
				<path fill="#FFFFFF" d="M84.955,19.597c-2.489,4.309-7.998,5.784-12.307,3.297c-4.308-2.488-5.783-7.997-3.295-12.305
					c2.486-4.31,7.996-5.784,12.306-3.297C85.965,9.78,87.441,15.288,84.955,19.597z"/>
			</g>
		</g>
		<g id="Layer_2">
			<g>
				<path fill="#FFFFFF" d="M66.439,29.889c-0.756,2.884-3.705,4.61-6.588,3.854c-2.882-0.756-4.608-3.701-3.854-6.588
					c0.753-2.883,3.704-4.608,6.586-3.854C65.467,24.056,67.193,27.005,66.439,29.889z"/>
				<path fill="#FFFFFF" d="M52.555,27.177c0.793,2.875-0.9,5.843-3.775,6.633c-2.875,0.789-5.844-0.902-6.633-3.777
					c-0.789-2.873,0.903-5.844,3.776-6.631C48.799,22.613,51.77,24.302,52.555,27.177z"/>
				<path fill="#FFFFFF" d="M39.179,31.771c2.12,2.094,2.14,5.512,0.046,7.631c-2.096,2.121-5.513,2.145-7.633,0.045
					c-2.119-2.095-2.14-5.512-0.045-7.631C33.643,29.695,37.059,29.675,39.179,31.771z"/>
				<path fill="#FFFFFF" d="M29.891,42.436c2.883,0.755,4.609,3.703,3.855,6.587c-0.753,2.885-3.704,4.61-6.587,3.855
					c-2.884-0.753-4.609-3.703-3.856-6.586C24.057,43.408,27.007,41.682,29.891,42.436z"/>
				<path fill="#FFFFFF" d="M27.18,56.319c2.873-0.789,5.844,0.9,6.631,3.775s-0.901,5.844-3.775,6.631
					c-2.875,0.791-5.846-0.9-6.633-3.775C22.613,60.077,24.304,57.106,27.18,56.319z"/>
				<path fill="#FFFFFF" d="M31.771,69.696c2.094-2.121,5.512-2.141,7.633-0.045c2.119,2.096,2.141,5.512,0.045,7.631
					c-2.096,2.121-5.512,2.145-7.633,0.045C29.697,75.233,29.675,71.815,31.771,69.696z"/>
				<path fill="#FFFFFF" d="M42.439,78.985c0.752-2.883,3.701-4.607,6.586-3.854c2.885,0.756,4.611,3.703,3.855,6.588
					c-0.755,2.885-3.704,4.607-6.586,3.854C43.411,84.817,41.684,81.868,42.439,78.985z"/>
				<path fill="#FFFFFF" d="M56.32,81.696c-0.789-2.875,0.902-5.846,3.775-6.633c2.877-0.789,5.844,0.902,6.635,3.777
					c0.789,2.873-0.902,5.844-3.778,6.631C60.079,86.261,57.107,84.571,56.32,81.696z"/>
				<path fill="#FFFFFF" d="M69.697,77.103c-2.12-2.094-2.141-5.512-0.045-7.631c2.095-2.121,5.512-2.145,7.632-0.045
					c2.12,2.094,2.141,5.512,0.044,7.631C75.234,79.179,71.816,79.2,69.697,77.103z"/>
				<path fill="#FFFFFF" d="M78.986,66.437c-2.883-0.754-4.608-3.703-3.856-6.586c0.755-2.885,3.704-4.609,6.586-3.855
					c2.886,0.758,4.611,3.703,3.856,6.59C84.818,65.466,81.87,67.19,78.986,66.437z"/>
				<path fill="#FFFFFF" d="M81.697,52.555c-2.873,0.788-5.844-0.901-6.633-3.776s0.901-5.844,3.777-6.634
					c2.873-0.788,5.844,0.902,6.635,3.778C86.264,48.797,84.572,51.767,81.697,52.555z"/>
				<path fill="#FFFFFF" d="M77.104,39.178c-2.094,2.119-5.512,2.14-7.631,0.046c-2.121-2.097-2.141-5.514-0.046-7.634
					c2.097-2.121,5.513-2.142,7.632-0.045C79.179,33.641,79.2,37.058,77.104,39.178z"/>
			</g>
		</g>
		<g id="Layer_3">
			<g>
				<path fill="#FFFFFF" d="M56.439,42.625c0,1.104-0.897,2.001-2.002,2.001c-1.105,0-2-0.896-2-2.001c0-1.106,0.895-2.005,2-2.005
					C55.543,40.625,56.439,41.519,56.439,42.625z"/>
				<path fill="#FFFFFF" d="M50.264,43.205c0.555,0.959,0.227,2.184-0.73,2.736s-2.182,0.223-2.734-0.734
					c-0.553-0.953-0.223-2.18,0.732-2.73C48.488,41.919,49.712,42.248,50.264,43.205z"/>
				<path fill="#FFFFFF" d="M45.209,46.796c0.958,0.554,1.285,1.775,0.732,2.732s-1.776,1.285-2.733,0.732
					c-0.958-0.553-1.285-1.777-0.733-2.734C43.027,46.572,44.251,46.244,45.209,46.796z"/>
				<path fill="#FFFFFF" d="M42.626,52.435c1.104,0,2.001,0.896,2.001,2.002c0,1.107-0.896,2.001-2.001,2.001
					c-1.106,0-2.002-0.895-2.002-2.001C40.624,53.332,41.52,52.435,42.626,52.435z"/>
				<path fill="#FFFFFF" d="M43.208,58.61c0.957-0.553,2.181-0.225,2.733,0.732c0.555,0.957,0.227,2.182-0.732,2.732
					c-0.958,0.555-2.182,0.227-2.734-0.73C41.922,60.386,42.248,59.163,43.208,58.61z"/>
				<path fill="#FFFFFF" d="M46.798,63.667c0.554-0.957,1.774-1.287,2.733-0.734c0.959,0.555,1.287,1.777,0.732,2.734
					c-0.553,0.957-1.775,1.283-2.734,0.73C46.572,65.847,46.246,64.626,46.798,63.667z"/>
				<path fill="#FFFFFF" d="M52.438,66.251c0-1.105,0.895-2.002,2-2.002c1.105-0.004,2.002,0.896,2.004,2.002
					c-0.002,1.104-0.898,2-2.004,2S52.438,67.356,52.438,66.251z"/>
				<path fill="#FFFFFF" d="M58.611,65.669c-0.553-0.957-0.225-2.186,0.732-2.734c0.957-0.555,2.182-0.225,2.734,0.732
					c0.552,0.957,0.224,2.182-0.733,2.732S59.164,66.626,58.611,65.669z"/>
				<path fill="#FFFFFF" d="M63.668,62.077c-0.958-0.553-1.286-1.773-0.732-2.73c0.553-0.957,1.775-1.287,2.734-0.734
					c0.956,0.557,1.285,1.777,0.732,2.734C65.85,62.302,64.624,62.628,63.668,62.077z"/>
				<path fill="#FFFFFF" d="M66.251,56.438c-1.106,0-2.001-0.895-2.001-2c0-1.104,0.895-2.004,2.001-2.004
					c1.104,0.001,2.001,0.896,2.002,2.004C68.253,55.544,67.357,56.438,66.251,56.438z"/>
				<path fill="#FFFFFF" d="M65.669,50.264c-0.958,0.554-2.183,0.226-2.735-0.733c-0.552-0.957-0.225-2.181,0.733-2.731
					c0.957-0.554,2.181-0.226,2.735,0.731C66.955,48.488,66.625,49.711,65.669,50.264z"/>
				<path fill="#FFFFFF" d="M62.078,45.207c-0.553,0.959-1.777,1.287-2.734,0.734c-0.957-0.554-1.285-1.777-0.732-2.736
					c0.553-0.957,1.776-1.282,2.734-0.729C62.302,43.027,62.63,44.251,62.078,45.207z"/>
			</g>
		</g>
	</g>
</g>
<g id="Layer_2_1_" display="none">
	<g display="inline">
		<path d="M237.388,106.683c-4.753,5.187-10.225,7.776-16.346,7.776c-13.754,0-23.906-13.033-23.906-25.994
			c0-13.683,9.938-25.854,23.618-25.854c10.081,0,16.201,4.608,19.515,11.162l-3.889,2.595c-3.312-6.339-8.93-9.22-15.697-9.22
			c-11.377,0-18.506,10.517-18.506,21.39c0,11.521,8.354,21.386,19.227,21.386c5.832,0,11.09-2.665,15.984-8.497v-8.567h-11.305
			v-3.89h15.625v25.13h-4.32V106.683L237.388,106.683z"/>
		<path d="M248.688,95.233c0-10.512,7.92-19.297,18.793-19.297c10.941,0,18.506,8.931,18.578,19.229c0,0.72-0.072,1.652-0.146,1.941
			H253.87c0.574,8.063,6.623,13.972,13.822,13.972c4.971,0,9.793-2.735,11.521-6.771l4.248,1.151
			c-2.305,5.474-8.713,9.358-15.914,9.358C256.606,114.819,248.688,105.892,248.688,95.233z M281.378,93.362
			c-0.646-7.99-6.553-13.606-13.896-13.606c-7.346,0-13.25,5.688-13.754,13.606H281.378z"/>
		<path d="M324.938,114.099h-4.896V93.146c0-8.854-2.52-12.744-7.992-12.744c-5.832,0-11.881,4.535-13.752,10.729v22.971h-4.898
			V76.585h4.466v8.496c3.021-5.477,9.286-9.146,15.911-9.146c8.427,0,11.16,6.338,11.16,16.201v21.963H324.938z"/>
		<path d="M332.64,95.233c0-10.512,7.92-19.297,18.793-19.297c10.943,0,18.506,8.931,18.576,19.229c0,0.72-0.07,1.652-0.145,1.941
			h-32.045c0.576,8.063,6.625,13.972,13.826,13.972c4.969,0,9.791-2.735,11.521-6.771l4.248,1.151
			c-2.305,5.474-8.713,9.358-15.912,9.358C340.56,114.819,332.64,105.892,332.64,95.233z M365.328,93.362
			c-0.646-7.99-6.554-13.606-13.896-13.606c-7.344,0-13.248,5.688-13.752,13.606H365.328z"/>
		<path d="M396.072,80.905c-6.556,0.219-11.812,3.816-13.826,9.863v23.33h-4.896V76.584h4.605v9
			c2.592-5.256,7.129-9.217,11.953-9.217c0.861,0,1.654,0,2.16,0.069v4.467L396.072,80.905L396.072,80.905z"/>
		<path d="M435.457,67.438h-18.219v46.66h-5.039v-46.66h-18.22v-4.463h41.478V67.438L435.457,67.438z"/>
		<path d="M439.628,95.233c0-10.512,7.92-19.297,18.793-19.297c10.945,0,18.506,8.931,18.578,19.229c0,0.72-0.072,1.652-0.146,1.941
			h-32.04c0.571,8.063,6.622,13.972,13.821,13.972c4.973,0,9.793-2.735,11.521-6.771l4.248,1.151
			c-2.307,5.474-8.713,9.358-15.912,9.358C447.548,114.819,439.628,105.892,439.628,95.233z M472.32,93.362
			c-0.648-7.99-6.557-13.606-13.898-13.606s-13.248,5.688-13.752,13.606H472.32z"/>
		<path d="M500.685,75.937c7.061,0,12.604,3.455,15.27,8.931l-4.752,1.514c-2.09-3.815-6.121-6.121-10.658-6.121
			c-7.633,0-13.609,6.408-13.609,14.978c0,8.498,6.193,15.27,13.686,15.27c4.752,0,9.793-2.953,10.941-6.408l4.756,1.438
			c-2.02,5.397-8.354,9.288-15.557,9.288c-10.873,0-18.865-8.93-18.865-19.588C481.895,84.58,489.597,75.937,500.685,75.937z"/>
		<path d="M555.479,114.099h-4.896V93.146c0-8.496-3.025-12.744-8.641-12.744c-5.545,0-11.377,4.607-13.105,10.729v22.971h-4.895
			V61.536h4.895v23.546c3.023-5.616,8.713-9.146,14.762-9.146c8.645,0,11.885,6.555,11.885,16.201L555.479,114.099L555.479,114.099z
			"/>
	</g>
</g>
</svg>
